HIERARCHY
ROOT Hips
{
    OFFSET 0.0 0.0 0.0
    CHANNELS 6 Xposition Yposition Zposition Zrotation Xrotation Yrotation
    JOINT RightUpLeg
    {
        OFFSET -0.1 0.0 0.0
        CHANNELS 3 Zrotation Xrotation Yrotation
        JOINT RightLeg
        {
            OFFSET 0.0 -0.45 0.0
            CHANNELS 1 Xrotation
            JOINT RightFoot
            {
                OFFSET 0.0 -0.45 0.0
                CHANNELS 0
                End Site
                {
                    OFFSET 0.0 -0.1 0.1
                }
            }
        }
    }
    JOINT LeftUpLeg
    {
        OFFSET 0.1 0.0 0.0
        CHANNELS 3 Zrotation Xrotation Yrotation
        JOINT LeftLeg
        {
            OFFSET 0.0 -0.45 0.0
            CHANNELS 1 Xrotation
            JOINT LeftFoot
            {
                OFFSET 0.0 -0.45 0.0
                CHANNELS 0
                End Site
                {
                    OFFSET 0.0 -0.1 0.1
                }
            }
        }
    }
    JOINT Spine
    {
        OFFSET 0.0 0.2 0.0
        CHANNELS 3 Zrotation Xrotation Yrotation
        End Site
        {
            OFFSET 0.0 0.5 0.0
        }
    }
}
MOTION
Frames: 59
Frame Time: 0.016667
0.0425 140.1560 -0.1903 0.0000 0.0000 0.0000 -2.2561 -1.0789 9.9249 26.3463 2.0111 1.2291 14.1756 29.1728 0.2707 1.3369 -1.7863
-0.0861 139.5865 -1.4624 0.0000 0.0000 0.0000 -6.8494 -4.2873 7.8290 3.0078 5.0309 3.7456 15.8009 10.5022 -0.4394 3.7454 -2.1838
-0.2905 137.5960 -2.3864 0.0000 0.0000 0.0000 -10.4228 -6.3181 2.1142 -22.2242 6.8582 4.5182 15.3848 -4.6406 -1.4275 4.4781 -0.5028
-0.3147 134.6128 -2.4171 0.0000 0.0000 0.0000 -12.2213 -7.0648 -8.6663 -40.2172 7.6846 5.2858 10.1308 -15.6790 -1.4169 3.7914 0.1155
-0.2738 130.6874 -2.1995 0.0000 0.0000 0.0000 -11.6944 -7.3930 -18.5315 -49.8238 7.2286 5.2881 5.9775 -22.1466 -0.0199 1.8958 1.1032
-0.2495 125.9987 -1.8733 0.0000 0.0000 0.0000 -9.3017 -7.8342 -25.3931 -50.0543 5.5786 4.9774 4.1330 -23.3032 2.7678 -0.4077 1.8430
-0.1029 122.2427 -1.2127 0.0000 0.0000 0.0000 -7.0632 -8.8516 -28.5325 -44.2033 2.6592 5.6744 3.6885 -22.4023 5.2071 -0.4629 1.4866
0.0867 121.5841 -0.0116 0.0000 0.0000 0.0000 -6.3544 -8.3594 -31.5074 -48.5118 0.5664 5.7333 5.4476 -22.1472 4.2475 -1.5477 0.5781
0.2380 121.4959 1.5724 0.0000 0.0000 0.0000 -6.6945 -7.5517 -32.6535 -51.9971 -0.7384 5.5598 8.1343 -21.0133 2.8655 -1.5098 0.0845
0.4671 121.6575 3.6068 0.0000 0.0000 0.0000 -7.6229 -6.0779 -31.3167 -51.3586 -1.1711 5.2672 10.7216 -18.8859 3.0477 -1.0925 -0.1333
0.7153 122.0995 5.9781 0.0000 0.0000 0.0000 -8.7363 -3.7586 -29.2298 -49.0161 -1.2282 3.7588 12.2424 -17.5255 3.7597 -1.9036 0.3287
0.7897 122.7092 8.2040 0.0000 0.0000 0.0000 -9.1649 -1.0832 -25.9751 -46.0422 -1.6709 0.7472 11.3037 -20.8234 3.8596 -3.2306 0.7016
0.6875 123.6077 10.1265 0.0000 0.0000 0.0000 -9.1352 0.4568 -20.8532 -41.7686 -2.6027 -1.4298 7.6355 -30.1042 2.9350 -3.7666 0.3308
0.4137 124.5029 11.9410 0.0000 0.0000 0.0000 -8.9250 1.2375 -15.0663 -36.7012 -3.4023 -2.5690 1.0800 -43.7964 1.2807 -3.6091 -0.1654
-0.0319 125.2028 13.8123 0.0000 0.0000 0.0000 -8.7211 2.2257 -9.3441 -30.8391 -3.9444 -3.2955 -7.7196 -58.1561 -0.3290 -3.5022 -0.3590
-0.6212 125.5704 15.8345 0.0000 0.0000 0.0000 -8.6632 4.0780 -4.1113 -24.5367 -4.2032 -4.3037 -16.5905 -67.9101 -1.1774 -3.9998 -0.3182
-1.1861 125.5220 18.0254 0.0000 0.0000 0.0000 -8.6613 5.7096 0.2860 -18.8564 -3.9546 -5.4361 -23.1371 -68.9169 -1.1080 -4.7268 -0.3389
-1.5870 125.0706 20.2607 0.0000 0.0000 0.0000 -8.6728 5.6236 3.2267 -16.5764 -2.6446 -6.0767 -25.1082 -59.7969 -0.6657 -4.6117 -0.2879
-1.9110 124.2339 22.4090 0.0000 0.0000 0.0000 -9.1049 5.2076 4.0554 -19.5708 -1.0323 -7.0756 -20.7832 -41.3110 0.2917 -4.6283 -0.0750
-1.8980 125.0057 24.3778 0.0000 0.0000 0.0000 -9.2325 1.7703 3.6848 -27.4747 -0.4282 -3.6822 -13.3673 -34.2420 0.2272 -1.8733 -0.1222
-1.6880 125.8486 26.6652 0.0000 0.0000 0.0000 -9.3338 -1.6355 -0.8711 -38.5679 0.0195 -0.1500 -8.9469 -30.9731 -0.9300 0.2593 -0.2066
-1.5048 126.0027 28.9575 0.0000 0.0000 0.0000 -9.2732 -2.6297 -7.2787 -49.9926 0.6348 1.4883 -4.2592 -26.5917 -1.9866 0.5610 -0.3863
-1.2044 126.1533 31.1365 0.0000 0.0000 0.0000 -8.8381 -3.5288 -12.4259 -58.3637 0.5269 3.4742 0.0393 -23.6793 -2.8416 1.0473 -0.4548
-0.8783 126.0558 33.3675 0.0000 0.0000 0.0000 -8.5593 -4.0573 -16.5701 -63.9425 0.1599 5.1168 3.5594 -21.5733 -3.2800 1.3050 -0.3491
-0.6300 125.5950 35.7457 0.0000 0.0000 0.0000 -8.3318 -3.4102 -20.0323 -65.8522 -0.4396 5.4001 6.3292 -19.6694 -2.9961 0.8150 -0.0515
-0.4585 124.8018 38.3015 0.0000 0.0000 0.0000 -7.9821 -2.0338 -22.5566 -62.4208 -1.5567 5.0752 8.0027 -18.5319 -1.7481 -0.0208 0.1310
-0.2710 123.8691 41.0503 0.0000 0.0000 0.0000 -7.6925 -0.3735 -23.0131 -53.0455 -3.6576 4.4654 7.7780 -20.0389 0.1915 -0.8038 0.2162
-0.0229 123.3168 44.1115 0.0000 0.0000 0.0000 -7.9627 1.6138 -22.0052 -42.0249 -5.9125 3.3348 5.2762 -24.6753 2.0517 -1.6048 0.4595
-0.1803 123.0317 47.0056 0.0000 0.0000 0.0000 -8.3695 3.3664 -16.8033 -35.4377 -7.7651 0.5291 1.1138 -34.2657 2.9528 -2.8094 0.6609
-0.8031 123.6688 49.5796 0.0000 0.0000 0.0000 -8.8335 5.8917 -10.6166 -29.4249 -8.9887 -2.7482 -5.9452 -48.6345 2.3505 -4.5279 0.3711
-1.5017 124.2322 52.1337 0.0000 0.0000 0.0000 -9.0162 6.0346 -3.1882 -21.2423 -10.1707 -3.1523 -15.9233 -65.6712 0.8510 -4.0377 -0.2842
-2.1143 124.5403 54.8746 0.0000 0.0000 0.0000 -9.5676 5.8335 3.2770 -13.3858 -10.2997 -2.5024 -25.2335 -74.9098 0.0352 -3.4638 -0.4766
-2.6242 124.6156 57.7212 0.0000 0.0000 0.0000 -10.3313 5.5750 7.4279 -9.3184 -8.7748 -2.5140 -30.2364 -72.2792 -0.0801 -3.0535 -0.5734
-3.0512 124.4109 60.6350 0.0000 0.0000 0.0000 -11.2409 5.3256 8.6661 -10.1893 -6.3033 -3.6736 -29.3728 -57.3417 0.6765 -2.9117 -0.4712
-3.3326 124.2276 63.3495 0.0000 0.0000 0.0000 -12.4348 4.2720 8.0061 -16.5093 -3.9840 -4.5294 -22.2927 -38.7974 1.9401 -2.3555 -0.4055
-3.2502 125.2311 65.7768 0.0000 0.0000 0.0000 -12.6478 -0.2263 5.3985 -27.0032 -2.1334 -1.0450 -15.3697 -33.6657 1.6649 1.0411 -0.6382
-2.9986 126.1073 68.3533 0.0000 0.0000 0.0000 -12.6643 -3.1414 -1.2128 -40.0691 -0.3808 1.6936 -9.5460 -29.3817 -0.0016 2.5713 -0.6999
-2.6807 126.6154 70.8843 0.0000 0.0000 0.0000 -12.4744 -3.8953 -9.1088 -52.2945 1.0029 3.5262 -3.6106 -24.7703 -1.8393 2.8005 -0.8049
-2.3589 126.6055 73.3058 0.0000 0.0000 0.0000 -12.0851 -3.8660 -15.0693 -60.4303 1.3994 5.0423 2.0169 -21.0039 -2.7549 2.6261 -0.6665
-2.1552 126.0967 75.8661 0.0000 0.0000 0.0000 -11.5249 -2.8189 -19.2240 -63.0615 0.8808 5.3413 6.1092 -18.7517 -2.6872 1.8866 -0.3248
-1.9781 125.5326 78.7460 0.0000 0.0000 0.0000 -10.8110 -1.4473 -21.7830 -58.8419 -0.4109 5.2293 7.9899 -18.3895 -1.7791 1.3473 -0.1660
-1.7525 124.9633 82.0060 0.0000 0.0000 0.0000 -10.6920 0.1704 -22.8699 -49.3877 -1.9761 5.0587 8.0851 -19.4205 -0.4194 1.0485 -0.0846
-1.5505 124.3023 85.4890 0.0000 0.0000 0.0000 -10.9898 2.3384 -21.4880 -37.7160 -3.5931 3.7967 6.6957 -22.6140 1.4223 0.1961 0.4066
-1.9509 124.6075 88.6149 0.0000 0.0000 0.0000 -11.1224 5.7327 -16.8520 -33.1284 -4.6292 -0.7532 3.7462 -31.3903 1.6950 -2.5240 0.5550
-2.4623 125.0446 91.4926 0.0000 0.0000 0.0000 -11.0253 5.9723 -9.7462 -26.4255 -6.0053 -2.5141 -2.9298 -46.5546 0.6002 -2.4942 -0.1718
-2.9877 125.3843 94.4304 0.0000 0.0000 0.0000 -10.8948 5.7157 -2.8503 -18.6366 -6.7093 -2.4795 -12.8235 -62.1009 -0.7295 -2.0459 -0.4434
-3.4920 125.4576 97.4758 0.0000 0.0000 0.0000 -11.0722 5.6831 3.0706 -11.6826 -6.8541 -1.8088 -22.3438 -71.2088 -1.5848 -1.8669 -0.3572
-3.9272 125.2868 100.6047 0.0000 0.0000 0.0000 -11.4848 5.6113 7.1784 -7.9918 -5.9252 -1.7155 -27.9542 -69.8050 -1.7333 -1.8991 -0.4102
-4.3246 124.8852 103.7936 0.0000 0.0000 0.0000 -11.9777 5.4703 8.8399 -8.9582 -3.9978 -2.9516 -28.1072 -56.9644 -1.2329 -2.1026 -0.5370
-4.6730 124.4247 106.8782 0.0000 0.0000 0.0000 -12.6664 4.8824 8.4721 -15.2397 -1.8835 -4.4515 -21.8911 -37.9456 -0.2211 -2.1585 -0.6075
-4.7473 125.5600 109.7159 0.0000 0.0000 0.0000 -12.5288 1.3620 6.1299 -26.1819 -0.3811 -1.5908 -13.9684 -30.9185 -0.4948 0.6566 -0.5767
-4.6723 126.6828 112.6203 0.0000 0.0000 0.0000 -12.1900 -1.0249 -0.0228 -39.9896 0.9087 0.7895 -7.7251 -26.3640 -1.9177 2.1871 -0.6008
-4.5664 127.2974 115.5236 0.0000 0.0000 0.0000 -11.6386 -1.3076 -7.9034 -52.8653 1.8514 2.0658 -1.9424 -21.9664 -3.4389 2.2959 -0.7179
-4.4447 127.3680 118.3753 0.0000 0.0000 0.0000 -10.8971 -0.8378 -14.4339 -61.3362 1.8874 3.0144 3.3176 -18.5355 -4.2539 2.0555 -0.5799
-4.3215 127.0172 121.3845 0.0000 0.0000 0.0000 -10.0610 -0.0810 -19.2887 -63.9694 1.1346 3.6276 7.0482 -16.6031 -4.2595 1.7293 -0.3197
-4.1696 126.4612 124.6787 0.0000 0.0000 0.0000 -9.4397 0.9800 -22.5935 -60.3645 -0.1230 3.8403 8.9212 -16.1187 -3.4311 1.3879 -0.1114
-3.9499 125.7605 128.3054 0.0000 0.0000 0.0000 -9.3011 2.3184 -24.0059 -50.3131 -1.7864 3.7905 8.7723 -17.4007 -1.7821 1.1103 -0.0138
-3.6598 124.7569 132.1728 0.0000 0.0000 0.0000 -9.5660 3.6904 -22.5992 -35.0144 -3.8871 3.3491 6.3400 -21.7669 0.5214 0.8340 0.1988
-3.8106 124.6854 135.7010 0.0000 0.0000 0.0000 -9.8061 5.9576 -17.1960 -27.1463 -5.4031 -0.2253 2.3456 -31.6640 1.3088 -1.4512 0.7434
